<svg width="99" height="16" fill="none" xmlns="http://www.w3.org/2000/svg"><g clip-path="url(#a)" fill="#292929"><path d="M18.339 12.35c.4.634.926 1.176 1.544 1.593a4.034 4.034 0 0 0 2.23.595 3.13 3.13 0 0 0 2.306-.907 2.943 2.943 0 0 0 .916-2.184c0-1.066-.619-1.896-1.863-2.49a163.62 163.62 0 0 1-3.486-1.414c-1.245-.688-1.874-1.704-1.874-3.062a3.563 3.563 0 0 1 .366-1.712c.263-.53.653-.985 1.135-1.322.948-.68 2.16-1.02 3.613-1.02a6.43 6.43 0 0 1 1.788.255c.547.148 1.06.408 1.503.765-.102.226-.197.431-.27.63 0 .047-.134.405-.35 1.093h-.225a2.903 2.903 0 0 0-1.101-1.366 3.115 3.115 0 0 0-1.76-.47 3.165 3.165 0 0 0-2.07.689 2.18 2.18 0 0 0-.842 1.78c0 1.066.627 1.894 1.872 2.489 1.174.48 2.335.95 3.51 1.412 1.26.68 1.89 1.65 1.89 2.914a4.34 4.34 0 0 1-.408 1.98 4.288 4.288 0 0 1-1.258 1.571c-1.035.854-2.378 1.281-4.029 1.281a7.58 7.58 0 0 1-2.079-.33 4.06 4.06 0 0 1-1.674-.893c.1-.277.18-.561.238-.85.051-.273.102-.604.154-1.027h.224Zm17.829-6.984-1.955 1.82c1.871 1.941 3.723 3.894 5.608 5.825l1.871 2.112v.112l-1.274-.085-1.288.057a23.872 23.872 0 0 0-.78-.98c-.279-.328-.54-.642-.81-.943l-5.034-5.391a.61.61 0 0 0-.31-.09c-.062 0-.092.027-.092.038v7.394l-1.007-.085-1.02.057V.747l1.02.058 1.007-.058v6.534c.022.054.092.074.227.046.138-.036.268-.1.38-.188.122-.085.37-.303.762-.642.132-.123.27-.254.432-.377l5.69-5.373.925.058.905-.058-5.257 4.62Zm14.062 9.869-1.018-.085-1.018.057V9.12L42.545.747l1.286.058 1.277-.058c.505.915 1.266 2.185 2.273 3.808 1.008 1.622 1.71 2.715 2.11 3.277.49-.614.936-1.263 1.336-1.942a120.77 120.77 0 0 0 1.8-2.977c.414-.732.846-1.447 1.278-2.166l.904.058.897-.058A27.64 27.64 0 0 0 54.07 2.86l-2.541 3.753c-.31.442-.54.8-.721 1.092a8.77 8.77 0 0 0-.567 1.038l-.011 6.492Zm13.611-2.885a5.435 5.435 0 0 0 1.545 1.593c.668.411 1.44.618 2.222.595a3.143 3.143 0 0 0 2.314-.907 2.947 2.947 0 0 0 .915-2.185c0-1.065-.615-1.895-1.87-2.488-1.165-.46-2.325-.932-3.479-1.415-1.255-.688-1.87-1.704-1.87-3.062a3.536 3.536 0 0 1 .37-1.716 3.49 3.49 0 0 1 1.15-1.318c.936-.68 2.14-1.02 3.601-1.02a6.436 6.436 0 0 1 1.801.255 4.18 4.18 0 0 1 1.502.765 6.095 6.095 0 0 0-.27.63c-.02.047-.133.405-.349 1.093h-.237a2.968 2.968 0 0 0-1.102-1.366 3.478 3.478 0 0 0-3.826.219 2.163 2.163 0 0 0-.846 1.781c0 1.065.63 1.893 1.875 2.488 1.16.48 2.335.95 3.51 1.412 1.255.68 1.89 1.639 1.89 2.914a4.34 4.34 0 0 1-.408 1.98 4.288 4.288 0 0 1-1.258 1.571c-1.05.841-2.387 1.265-4.05 1.265a7.554 7.554 0 0 1-2.066-.33 3.975 3.975 0 0 1-1.687-.886c.1-.276.178-.56.234-.849.044-.273.103-.604.157-1.027l.232.008Zm13.736 2.885-1.007-.085-1.02.057V.747h4.125c2.255 0 3.807.254 4.671.765.864.51 1.285 1.404 1.285 2.704 0 1.235-.41 2.207-1.244 2.893-.77.633-1.996 1.092-3.692 1.415a4.058 4.058 0 0 1-.81.084c-.337.02-.54.028-.575.028-.359 0-.68 0-.947-.028-.268-.027-.54-.027-.791-.038l.005 6.665Zm0-7.493c.207.029.417.038.626.028.135 0 .29.019.432.019h.835c.13-.023.26-.038.391-.047 1.143-.096 2.038-.455 2.684-1.076a3.154 3.154 0 0 0 .97-2.346 2.769 2.769 0 0 0-.597-1.838 2.226 2.226 0 0 0-1.504-.858 16.934 16.934 0 0 0-1.307-.074h-2.53v6.192Zm20.904 7.493-1.201-.085-1.215.057a86.725 86.725 0 0 0-1.41-3.507 56.23 56.23 0 0 0-1.018-2.185h-5.864a164.466 164.466 0 0 0-1.502 3.477c-.227.565-.494 1.3-.783 2.215l-.853-.057-.81.057L91.023.427h.54l6.918 14.808ZM90.724 3.197l-2.509 5.425h5.071l-2.562-5.425ZM.982.578c.37.066 1.585.104 3.643.104h5.451v.472c-.226.49-.54 1.093-.966 1.847-.427.754-.81 1.442-1.142 2.073-.332.63-.678 1.365-1.03 2.158a13.11 13.11 0 0 0-.79 2.573 12.898 12.898 0 0 0-.219 3.818c.032.388.051.67.051.82a1.128 1.128 0 0 1-.33.819 1.171 1.171 0 0 1-.841.32 1.003 1.003 0 0 1-.835-.367 1.418 1.418 0 0 1-.291-.904 9.894 9.894 0 0 1 .27-2.207 13.05 13.05 0 0 1 .607-2.015c.277-.693.6-1.366.97-2.013.402-.754.76-1.366 1.08-1.858.318-.491.72-1.111 1.225-1.873.505-.763.894-1.35 1.142-1.754H3.143c-.649 0-1.059.074-1.256.227-.23.249-.368.57-.392.91h-.42c0-1.481-.03-2.527-.093-3.15Z"/></g><defs><clipPath id="a"><path fill="#292929" transform="translate(.982 .428)" d="M0 0h97.499v15.145H0z"/></clipPath></defs></svg>